HIERARCHY
ROOT hip
{
  OFFSET 18.3521 79.3136 -93.6741
  CHANNELS 6 Xposition Yposition Zposition Zrotation Xrotation Yrotation
  JOINT abdomen
  {
    OFFSET 0 20.6881 -0.73152
    CHANNELS 3 Zrotation Xrotation Yrotation
    JOINT chest
    {
      OFFSET 0 11.7043 -0.48768
      CHANNELS 3 Zrotation Xrotation Yrotation
      JOINT neck
      {
        OFFSET 0 22.1894 -2.19456
        CHANNELS 3 Zrotation Xrotation Yrotation
        JOINT head
        {
          OFFSET -0.24384 7.07133 1.2192
          CHANNELS 3 Zrotation Xrotation Yrotation
          JOINT leftEye
          {
            OFFSET 4.14528 8.04674 8.04672
            CHANNELS 3 Zrotation Xrotation Yrotation
            End Site
            {
              OFFSET 1 0 0
            }
          }
          JOINT rightEye
          {
            OFFSET -3.6576 8.04674 8.04672
            CHANNELS 3 Zrotation Xrotation Yrotation
            End Site
            {
              OFFSET 1 0 0
            }
          }
        }
      }
      JOINT rCollar
      {
        OFFSET -2.68224 19.2634 -4.8768
        CHANNELS 3 Zrotation Xrotation Yrotation
        JOINT rShldr
        {
          OFFSET -8.77824 -1.95073 1.46304
          CHANNELS 3 Zrotation Xrotation Yrotation
          JOINT rForeArm
          {
            OFFSET -28.1742 -1.7115 0.48768
            CHANNELS 3 Zrotation Xrotation Yrotation
            JOINT rHand
            {
              OFFSET -22.5879 0.773209 7.07136
              CHANNELS 3 Zrotation Xrotation Yrotation
              JOINT rThumb1
              {
                OFFSET -1.2192 -0.487915 3.41376
                CHANNELS 3 Zrotation Xrotation Yrotation
                JOINT rThumb2
                {
                  OFFSET -3.37035 -0.52449 3.41376
                  CHANNELS 3 Zrotation Xrotation Yrotation
                  End Site
                  {
                    OFFSET -1.78271 -1.18214 1.43049
                  }
                }
              }
              JOINT rIndex1
              {
                OFFSET -7.75947 0.938293 5.60832
                CHANNELS 3 Zrotation Xrotation Yrotation
                JOINT rIndex2
                {
                  OFFSET -2.54057 -0.884171 1.56538
                  CHANNELS 3 Zrotation Xrotation Yrotation
                  End Site
                  {
                    OFFSET -1.62519 -0.234802 1.16502
                  }
                }
              }
              JOINT rMid1
              {
                OFFSET -8.24714 1.18213 3.41376
                CHANNELS 3 Zrotation Xrotation Yrotation
                JOINT rMid2
                {
                  OFFSET -3.10165 -0.590103 1.0647
                  CHANNELS 3 Zrotation Xrotation Yrotation
                  End Site
                  {
                    OFFSET -2.48547 -0.328903 0.83742
                  }
                }
              }
              JOINT rRing1
              {
                OFFSET -8.82822 0.546677 1.51678
                CHANNELS 3 Zrotation Xrotation Yrotation
                JOINT rRing2
                {
                  OFFSET -2.60934 -0.819778 -0.0198488
                  CHANNELS 3 Zrotation Xrotation Yrotation
                  End Site
                  {
                    OFFSET -2.33842 -0.294052 0.168128
                  }
                }
              }
              JOINT rPinky1
              {
                OFFSET -8.27202 -0.0477905 -0.4584
                CHANNELS 3 Zrotation Xrotation Yrotation
                JOINT rPinky2
                {
                  OFFSET -1.82734 -0.647385 -0.700984
                  CHANNELS 3 Zrotation Xrotation Yrotation
                  End Site
                  {
                    OFFSET -1.69225 -0.51767 -0.607171
                  }
                }
              }
            }
          }
        }
      }
      JOINT lCollar
      {
        OFFSET 2.68224 19.2634 -4.8768
        CHANNELS 3 Zrotation Xrotation Yrotation
        JOINT lShldr
        {
          OFFSET 8.77824 -1.95073 1.46304
          CHANNELS 3 Zrotation Xrotation Yrotation
          JOINT lForeArm
          {
            OFFSET 28.1742 -1.7115 0.48768
            CHANNELS 3 Zrotation Xrotation Yrotation
            JOINT lHand
            {
              OFFSET 22.5879 0.773209 7.07136
              CHANNELS 3 Zrotation Xrotation Yrotation
              JOINT lThumb1
              {
                OFFSET 1.2192 -0.487915 3.41376
                CHANNELS 3 Zrotation Xrotation Yrotation
                JOINT lThumb2
                {
                  OFFSET 3.37035 -0.52449 3.41376
                  CHANNELS 3 Zrotation Xrotation Yrotation
                  End Site
                  {
                    OFFSET 1.78271 -1.18214 1.43049
                  }
                }
              }
              JOINT lIndex1
              {
                OFFSET 7.75947 0.938293 5.60832
                CHANNELS 3 Zrotation Xrotation Yrotation
                JOINT lIndex2
                {
                  OFFSET 2.54057 -0.884171 1.56538
                  CHANNELS 3 Zrotation Xrotation Yrotation
                  End Site
                  {
                    OFFSET 1.62519 -0.234802 1.16502
                  }
                }
              }
              JOINT lMid1
              {
                OFFSET 8.24714 1.18213 3.41376
                CHANNELS 3 Zrotation Xrotation Yrotation
                JOINT lMid2
                {
                  OFFSET 3.10165 -0.590103 1.0647
                  CHANNELS 3 Zrotation Xrotation Yrotation
                  End Site
                  {
                    OFFSET 2.48547 -0.328903 0.83742
                  }
                }
              }
              JOINT lRing1
              {
                OFFSET 8.82822 0.546677 1.51678
                CHANNELS 3 Zrotation Xrotation Yrotation
                JOINT lRing2
                {
                  OFFSET 2.60934 -0.819778 -0.0198488
                  CHANNELS 3 Zrotation Xrotation Yrotation
                  End Site
                  {
                    OFFSET 2.33842 -0.294052 0.168128
                  }
                }
              }
              JOINT lPinky1
              {
                OFFSET 8.27202 -0.0477905 -0.4584
                CHANNELS 3 Zrotation Xrotation Yrotation
                JOINT lPinky2
                {
                  OFFSET 1.82734 -0.647385 -0.700984
                  CHANNELS 3 Zrotation Xrotation Yrotation
                  End Site
                  {
                    OFFSET 1.69225 -0.51767 -0.607171
                  }
                }
              }
            }
          }
        }
      }
    }
  }
  JOINT rButtock
  {
    OFFSET -8.77824 4.35084 1.2192
    CHANNELS 3 Zrotation Xrotation Yrotation
    JOINT rThigh
    {
      OFFSET 0 -1.70687 -2.19456
      CHANNELS 3 Zrotation Xrotation Yrotation
      JOINT rShin
      {
        OFFSET 0 -36.8199 0.73152
        CHANNELS 3 Zrotation Xrotation Yrotation
        JOINT rFoot
        {
          OFFSET 0.73152 -45.1104 -5.12064
          CHANNELS 3 Zrotation Xrotation Yrotation
          End Site
          {
            OFFSET -1.1221 -3.69964 12.103
          }
        }
      }
    }
  }
  JOINT lButtock
  {
    OFFSET 8.77824 4.35084 1.2192
    CHANNELS 3 Zrotation Xrotation Yrotation
    JOINT lThigh
    {
      OFFSET 0 -1.70687 -2.19456
      CHANNELS 3 Zrotation Xrotation Yrotation
      JOINT lShin
      {
        OFFSET 0 -36.8199 0.73152
        CHANNELS 3 Zrotation Xrotation Yrotation
        JOINT lFoot
        {
          OFFSET -0.73152 -45.1104 -5.12064
          CHANNELS 3 Zrotation Xrotation Yrotation
          End Site
          {
            OFFSET 1.1221 -3.69964 12.103
          }
        }
      }
    }
  }
}
MOTION
Frames:	7
Frame Time:	0.00833333
23.7267 85.2022 152.96 -0.457842 -0.000986306 0.00783586 0.602232 -0.00285578 0.0171681 0.166044 -0.00431806 0.0287692 4.03898e-015 7.95139e-016 3.72722e-017 1.22315e-014 9.54166e-015 7.60973e-017 -0 0 0 -0 0 0 2.03624e-015 -7.76503e-018 9.93923e-017 4.49135e-014 -2.11209e-016 1.39149e-015 7.58264e-013 -2.28801e-013 -2.22639e-014 8.61945e-012 2.04922e-013 1.04958e-013 2.03434e-011 -5.0779e-014 1.84472e-013 3.51205e-011 -9.54166e-014 3.11694e-013 2.03464e-011 -5.08889e-014 1.7175e-013 7.73091 5.47488 0.417314 2.03418e-011 -5.14852e-014 1.84472e-013 2.90554 0.965183 0.102902 2.03475e-011 -5.06901e-014 1.81292e-013 10.2786 0.731801 0.0259123 2.03377e-011 -4.73108e-014 1.94014e-013 2.22167 -0.733487 -0.20892 1.93959e-015 -7.95915e-018 -9.93923e-017 4.1385e-014 -1.98785e-016 -5.96354e-016 7.48474e-013 2.22042e-013 1.59028e-014 8.62277e-012 -2.47089e-013 6.99722e-014 2.03333e-011 -5.38297e-014 1.87653e-013 3.5128e-011 -8.90555e-014 3.23621e-013 2.03313e-011 -5.52621e-014 1.94014e-013 -7.73091 5.47488 -0.417314 2.03348e-011 -5.43676e-014 1.81292e-013 -2.90554 0.965183 -0.102902 2.03288e-011 -5.37713e-014 1.85267e-013 -10.2786 0.731801 -0.0259123 2.03391e-011 -5.24792e-014 1.7175e-013 -2.22167 -0.733487 0.20892 -2.03217e-016 0 -3.88251e-019 0.985594 -4.60216 -0.0812468 -0.00202342 2.78413 -0.00804809 -0.532778 1.81805 0.0982462 2.03217e-016 0 3.88251e-019 -0.0700256 -2.29254 0.021858 0.00846568 -1.39933 0.0723252 0.526033 3.69177 -0.136065 
23.2457 83.6351 146.348 2.14605 0.967965 -48.1783 -1.99338 1.23476 -0.419798 0.818988 0.230222 -0.115402 -0.793853 0.920445 -0.174463 -0.590479 -2.85783 -0.103942 -0 0 0 -0 0 0 1.13533e-014 -7.27978e-014 -1.43005e-014 14.0197 13.5485 2.19263 -14.8034 -12.0088 14.4837 0.00586586 1.69913 0.238418 3.60899e-010 9.34262e-010 -3.43523e-010 6.22397e-010 1.61769e-009 -5.94383e-010 3.609e-010 9.34263e-010 -3.43532e-010 7.73091 5.47488 0.417314 3.60897e-010 9.3427e-010 -3.43525e-010 2.90554 0.965183 0.102902 3.60903e-010 9.34263e-010 -3.43524e-010 10.2786 0.731801 0.0259123 3.60892e-010 9.34265e-010 -3.43513e-010 2.22167 -0.733487 -0.20892 1.12685e-014 -7.27986e-014 -1.45458e-014 -20.2432 7.65684 -5.33937 3.78662 -1.64181 -5.99795 -0.00331542 1.28926 -0.181033 3.29436e-010 8.59365e-011 -2.66715e-010 5.68031e-010 1.45894e-010 -4.62487e-010 3.29435e-010 8.59384e-011 -2.66708e-010 -7.73091 5.47488 -0.417314 3.29438e-010 8.5939e-011 -2.66719e-010 -2.90554 0.965183 -0.102902 3.29431e-010 8.59394e-011 -2.66717e-010 -10.2786 0.731801 -0.0259123 3.29441e-010 8.59398e-011 -2.66728e-010 -2.22167 -0.733487 0.20892 -2.03217e-016 0 -3.88251e-019 -1.78202 -10.6112 1.13856 0.00486217 20.0742 0.234662 -0.490296 3.6629 2.4529 2.03217e-016 0 3.88251e-019 -2.84972 -6.82708 -0.142786 0.00488331 5.62814 -0.0245367 0.525835 0.449429 0.471114 
23.106 83.5835 145.75 5.61243 -0.469745 -99.0541 -4.71367 2.54876 -0.882163 1.51033 0.487067 -0.267956 -1.64153 1.8628 -0.347809 -1.23448 -5.85752 -0.188727 -0 0 0 -0 0 0 2.13192e-014 -1.55949e-013 -3.01003e-014 27.5653 27.8114 4.99157 -23.7109 -22.074 31.6857 -0.00333995 3.49758 0.491485 7.54572e-010 2.06048e-009 -7.46246e-010 1.30124e-009 3.56788e-009 -1.29121e-009 7.54572e-010 2.06048e-009 -7.46252e-010 7.73091 5.47488 0.417314 7.54571e-010 2.0605e-009 -7.4625e-010 2.90554 0.965183 0.102902 7.54577e-010 2.06048e-009 -7.46246e-010 10.2786 0.731801 0.0259123 7.54565e-010 2.06048e-009 -7.46237e-010 2.22167 -0.733487 -0.20892 2.1247e-014 -1.55951e-013 -3.03985e-014 -40.0575 15.4272 -11.2538 7.39604 -3.30234 -12.3207 0.00211854 2.67238 -0.375561 6.72872e-010 1.7631e-010 -5.65832e-010 1.16009e-009 2.99157e-010 -9.81099e-010 6.72874e-010 1.76316e-010 -5.65823e-010 -7.73091 5.47488 -0.417314 6.72876e-010 1.76316e-010 -5.65832e-010 -2.90554 0.965183 -0.102902 6.72868e-010 1.76316e-010 -5.65832e-010 -10.2786 0.731801 -0.0259123 6.72877e-010 1.76316e-010 -5.65842e-010 -2.22167 -0.733487 0.20892 -2.03217e-016 0 -3.88251e-019 -4.40407 -16.8866 2.52483 -0.18696 38.3649 0.589543 -0.618957 5.67667 5.00664 2.03217e-016 0 3.88251e-019 -5.80489 -11.6464 -0.306409 0.0275238 13.049 -0.1296 0.601594 -2.95755 1.1292 
23.0794 83.595 144.821 6.64053 -3.54643 -144.445 -7.12789 3.70915 -1.29615 2.12842 0.699286 -0.403772 -2.36473 2.76123 -0.52393 -1.80284 -8.57338 -0.314958 -0 0 0 -0 0 0 2.99875e-014 -2.18378e-013 -4.31002e-014 38.1337 40.3684 8.40593 -26.5224 -26.463 48.9711 -0.0249669 5.09704 0.717778 1.04201e-009 2.80289e-009 -1.03094e-009 1.79695e-009 4.85326e-009 -1.78377e-009 1.04201e-009 2.80289e-009 -1.03094e-009 7.73091 5.47488 0.417314 1.04201e-009 2.80291e-009 -1.03094e-009 2.90554 0.965183 0.102902 1.04201e-009 2.80289e-009 -1.03094e-009 10.2786 0.731801 0.0259123 1.042e-009 2.80289e-009 -1.03093e-009 2.22167 -0.733487 -0.20892 2.99263e-014 -2.1838e-013 -4.34387e-014 -56.2247 22.1419 -17.1765 10.3445 -4.70995 -18.0495 0.0145423 3.86763 -0.5442 9.4764e-010 2.57917e-010 -8.00521e-010 1.63384e-009 4.37861e-010 -1.38811e-009 9.47644e-010 2.57926e-010 -8.00511e-010 -7.73091 5.47488 -0.417314 9.47645e-010 2.57926e-010 -8.00519e-010 -2.90554 0.965183 -0.102902 9.47635e-010 2.57926e-010 -8.00521e-010 -10.2786 0.731801 -0.0259123 9.47644e-010 2.57924e-010 -8.00529e-010 -2.22167 -0.733487 0.20892 -2.03217e-016 0 -3.88251e-019 -6.49311 -22.5904 3.8121 -0.693816 54.6491 1.17067 -0.862218 7.30514 7.20606 2.03217e-016 0 3.88251e-019 -8.49 -15.8957 -0.487648 0.0719652 19.6829 -0.231382 0.732157 -6.03261 1.69425 
23.008 83.5827 144.013 5.48624 -5.32706 -176.365 -8.81737 4.48633 -1.58685 2.56065 0.799958 -0.497708 -2.78574 3.54993 -0.706656 -2.17325 -10.5796 -0.543797 -0 0 0 -0 0 0 3.5412e-014 -2.28999e-013 -4.90998e-014 44.3108 48.9305 11.6487 -26.9318 -26.113 61.0606 -0.0473683 6.19933 0.874709 1.06385e-009 2.58576e-009 -1.02055e-009 1.83484e-009 4.4766e-009 -1.76567e-009 1.06385e-009 2.58576e-009 -1.02055e-009 7.73091 5.47488 0.417314 1.06385e-009 2.58578e-009 -1.02055e-009 2.90554 0.965183 0.102902 1.06386e-009 2.58576e-009 -1.02055e-009 10.2786 0.731801 0.0259123 1.06385e-009 2.58576e-009 -1.02054e-009 2.22167 -0.733487 -0.20892 3.53577e-014 -2.29001e-013 -4.94477e-014 -66.3508 26.9409 -22.1114 12.3263 -5.68014 -22.2433 0.0259471 4.59336 -0.646955 1.05073e-009 3.17607e-010 -8.74144e-010 1.81179e-009 5.40173e-010 -1.5161e-009 1.05074e-009 3.17617e-010 -8.74134e-010 -7.73091 5.47488 -0.417314 1.05074e-009 3.17617e-010 -8.7414e-010 -2.90554 0.965183 -0.102902 1.05073e-009 3.17617e-010 -8.74143e-010 -10.2786 0.731801 -0.0259123 1.05074e-009 3.17615e-010 -8.7415e-010 -2.22167 -0.733487 0.20892 -2.03217e-016 0 -3.88251e-019 -7.86455 -26.9041 4.64227 -1.53291 65.9205 2.02335 -1.02496 8.02061 8.47369 2.03217e-016 0 3.88251e-019 -10.4527 -18.7199 -0.701443 0.11825 24.3499 -0.311625 0.847368 -8.28113 2.01449 
22.9131 83.493 143.274 4.7129 -5.65608 170.654 -9.51397 4.72568 -1.73723 2.70998 0.705779 -0.541933 -2.75251 4.37576 -0.912915 -2.27612 -11.6909 -0.954642 -0 0 0 -0 0 0 3.39224e-014 -1.49832e-013 -4.55625e-014 46.8947 52.2134 12.5887 -27.0558 -25.1984 65.549 -0.0587983 6.67196 0.942294 6.02365e-010 4.3484e-010 -4.43797e-010 1.03955e-009 7.50573e-010 -7.67425e-010 6.02364e-010 4.3484e-010 -4.43794e-010 7.73091 5.47488 0.417314 6.02365e-010 4.34858e-010 -4.438e-010 2.90554 0.965183 0.102902 6.02368e-010 4.3484e-010 -4.43792e-010 10.2786 0.731801 0.0259123 6.02356e-010 4.3484e-010 -4.43785e-010 2.22167 -0.733487 -0.20892 3.3867e-014 -1.49834e-013 -4.58715e-014 -69.5181 29.7171 -24.899 13.2468 -6.17276 -24.2613 0.0282796 4.66442 -0.657084 8.99043e-010 3.96195e-010 -6.73533e-010 1.551e-009 6.77453e-010 -1.16933e-009 8.99045e-010 3.96204e-010 -6.73525e-010 -7.73091 5.47488 -0.417314 8.99049e-010 3.96205e-010 -6.73531e-010 -2.90554 0.965183 -0.102902 8.99038e-010 3.96205e-010 -6.73533e-010 -10.2786 0.731801 -0.0259123 8.99047e-010 3.96203e-010 -6.7354e-010 -2.22167 -0.733487 0.20892 -2.03217e-016 0 -3.88251e-019 -8.60881 -29.2461 4.56699 -2.12383 70.2417 2.60459 -0.927997 7.44166 8.41889 2.03217e-016 0 3.88251e-019 -11.3965 -19.4779 -0.991606 0.14018 26.2331 -0.348947 0.855896 -9.34226 1.91476 
22.8036 83.3619 142.541 4.88068 -5.64208 171.27 -9.5054 4.58114 -1.78532 2.65803 0.474267 -0.550228 -2.39377 5.21894 -1.13565 -2.18609 -12.1574 -1.49336 -0 0 0 -0 0 0 2.76071e-014 -7.35389e-015 -3.52004e-014 47.6909 51.8045 11.1892 -27.0536 -25.3685 65.1526 -0.0592463 6.69174 0.945131 -1.99054e-010 -3.06923e-009 5.30201e-010 -3.41694e-010 -5.31917e-009 9.18299e-010 -1.99052e-010 -3.06924e-009 5.30205e-010 7.73091 5.47488 0.417314 -1.99053e-010 -3.06923e-009 5.30202e-010 2.90554 0.965183 0.102902 -1.99053e-010 -3.06924e-009 5.30208e-010 10.2786 0.731801 0.0259123 -1.99063e-010 -3.06923e-009 5.30216e-010 2.22167 -0.733487 -0.20892 2.7545e-014 -7.35544e-015 -3.54365e-014 -68.1534 31.2496 -25.9173 13.4825 -6.36915 -24.7158 0.0234195 4.26774 -0.600955 5.6605e-010 4.85919e-010 -2.79363e-010 9.77991e-010 8.3562e-010 -4.87447e-010 5.66049e-010 4.85927e-010 -2.79358e-010 -7.73091 5.47488 -0.417314 5.66055e-010 4.85928e-010 -2.79363e-010 -2.90554 0.965183 -0.102902 5.66045e-010 4.85929e-010 -2.79364e-010 -10.2786 0.731801 -0.0259123 5.66053e-010 4.85927e-010 -2.79373e-010 -2.22167 -0.733487 0.20892 -2.03217e-016 0 -3.88251e-019 -8.99752 -30.1864 3.79531 -2.02407 69.6007 2.49212 -0.671412 5.93686 7.4262 2.03217e-016 0 3.88251e-019 -11.5932 -18.7631 -1.32783 0.1373 26.1292 -0.351722 0.773682 -9.55707 1.51453 
